<svg width="65" height="68" viewBox="0 0 65 68" fill="none" xmlns="http://www.w3.org/2000/svg">
<g filter="url(#filter0_f)">
<path d="M50 30.3365C50 30.0272 49.7483 29.7765 49.4378 29.7765H20.616V29.7391C20.616 29.6636 20.612 29.589 20.6051 29.5153L25.0297 28.0439C25.3242 27.9459 25.4832 27.6287 25.3849 27.3354C25.2866 27.042 24.9684 26.8834 24.6736 26.9815L22.0135 27.8661L24.3344 23.2367L27.3767 22.2251L25.0558 26.8544L24.6736 26.9815C24.3791 27.0795 24.22 27.3967 24.3184 27.6901C24.4167 27.9835 24.735 28.1421 25.0297 28.0439L47.8164 20.4662C47.9579 20.4192 48.0747 20.3181 48.1413 20.1852C48.208 20.0524 48.2189 19.8985 48.1717 19.7576L46.8425 15.791C46.6396 15.1857 45.9804 14.8575 45.3725 15.0597L15.794 24.896C15.1864 25.0981 14.857 25.755 15.0599 26.3604L15.9806 29.108C15.9243 29.309 15.8936 29.5205 15.8936 29.7391V31.5313C15.8936 32.1314 16.1206 32.6794 16.4932 33.0954V51.8426C16.4932 52.4808 17.0144 53 17.6551 53H48.8381C49.4788 53 50 52.4808 50 51.8426V30.3365ZM48.8756 34.5556H46.5973L48.8756 32.2859V34.5556ZM37.0025 34.5556L40.6755 30.8966H43.8828L40.2098 34.5556H37.0025ZM32.2051 34.5556L35.8781 30.8966H39.0854L35.4124 34.5556H32.2051ZM27.4077 34.5556L31.0807 30.8966H34.288L30.615 34.5556H27.4077ZM22.6104 34.5556L26.2834 30.8966H29.4906L25.8176 34.5556H22.6104ZM24.6933 30.8966L21.0203 34.5556H17.6176V33.7958C17.8205 33.8525 18.034 33.8835 18.2548 33.8835C19.5567 33.8835 20.616 32.8283 20.616 31.5313V30.8966H24.6933ZM17.018 31.5313V29.7391C17.018 29.0597 17.5728 28.507 18.2548 28.507C18.9368 28.507 19.4916 29.0597 19.4916 29.7391V31.5313C19.4916 32.2107 18.9368 32.7634 18.2548 32.7634C17.5728 32.7634 17.018 32.2107 17.018 31.5313ZM20.5051 28.3677L20.2335 28.458C19.8465 27.867 19.2006 27.4593 18.4572 27.3962L19.7838 24.75L22.826 23.7383L20.5051 28.3677ZM28.8849 21.7235L31.9272 20.7118L29.6062 25.3411L26.5639 26.3528L28.8849 21.7235ZM36.4777 19.1985L34.1568 23.8279L31.1145 24.8395L33.4354 20.2102L36.4777 19.1985ZM41.0283 17.6852L38.7073 22.3145L35.6651 23.3262L37.9861 18.6969L41.0283 17.6852ZM46.9271 19.5811L44.7661 20.2998L46.2057 17.4282L46.9271 19.5811ZM45.5788 16.1719L43.2579 20.8013L40.2155 21.813L42.5365 17.1837L45.5788 16.1719ZM16.1501 25.9584L18.2755 25.2516L17.0351 27.7257C16.9409 27.7825 16.8512 27.8459 16.7662 27.9149L16.1264 26.0057C16.1199 25.9862 16.1304 25.965 16.1501 25.9584ZM48.8381 51.8799H17.6551C17.6344 51.8799 17.6176 51.8631 17.6176 51.8426V35.6757H44.6406C44.951 35.6757 45.2028 35.4249 45.2028 35.1156C45.2028 34.8063 44.951 34.5556 44.6406 34.5556H41.7999L45.4729 30.8966H48.6802L45.0072 34.5556H44.6406C44.3301 34.5556 44.0784 34.8063 44.0784 35.1156C44.0784 35.4249 44.3301 35.6757 44.6406 35.6757H48.8756V51.8426C48.8756 51.8632 48.8587 51.8799 48.8381 51.8799Z" fill="#F2AC24"/>
<path d="M44.6404 40.5295H21.8528C21.5423 40.5295 21.2906 40.7802 21.2906 41.0895C21.2906 41.3988 21.5423 41.6496 21.8528 41.6496H44.6404C44.9509 41.6496 45.2026 41.3988 45.2026 41.0895C45.2026 40.7802 44.9509 40.5295 44.6404 40.5295Z" fill="#F2AC24"/>
<path d="M44.6404 45.906H21.8528C21.5423 45.906 21.2906 46.1567 21.2906 46.466C21.2906 46.7753 21.5423 47.0261 21.8528 47.0261H44.6404C44.9509 47.0261 45.2026 46.7753 45.2026 46.466C45.2026 46.1567 44.9509 45.906 44.6404 45.906Z" fill="#F2AC24"/>
</g>
<path d="M50 30.3365C50 30.0272 49.7483 29.7765 49.4378 29.7765H20.616V29.7391C20.616 29.6636 20.612 29.589 20.6051 29.5153L25.0297 28.0439C25.3242 27.9459 25.4832 27.6287 25.3849 27.3354C25.2866 27.042 24.9684 26.8834 24.6736 26.9815L22.0135 27.8661L24.3344 23.2367L27.3767 22.2251L25.0558 26.8544L24.6736 26.9815C24.3791 27.0795 24.22 27.3967 24.3184 27.6901C24.4167 27.9835 24.735 28.1421 25.0297 28.0439L47.8164 20.4662C47.9579 20.4192 48.0747 20.3181 48.1413 20.1852C48.208 20.0524 48.2189 19.8985 48.1717 19.7576L46.8425 15.791C46.6396 15.1857 45.9804 14.8575 45.3725 15.0597L15.794 24.896C15.1864 25.0981 14.857 25.755 15.0599 26.3604L15.9806 29.108C15.9243 29.309 15.8936 29.5205 15.8936 29.7391V31.5313C15.8936 32.1314 16.1206 32.6794 16.4932 33.0954V51.8426C16.4932 52.4808 17.0144 53 17.6551 53H48.8381C49.4788 53 50 52.4808 50 51.8426V30.3365ZM48.8756 34.5556H46.5973L48.8756 32.2859V34.5556ZM37.0025 34.5556L40.6755 30.8966H43.8828L40.2098 34.5556H37.0025ZM32.2051 34.5556L35.8781 30.8966H39.0854L35.4124 34.5556H32.2051ZM27.4077 34.5556L31.0807 30.8966H34.288L30.615 34.5556H27.4077ZM22.6104 34.5556L26.2834 30.8966H29.4906L25.8176 34.5556H22.6104ZM24.6933 30.8966L21.0203 34.5556H17.6176V33.7958C17.8205 33.8525 18.034 33.8835 18.2548 33.8835C19.5567 33.8835 20.616 32.8283 20.616 31.5313V30.8966H24.6933ZM17.018 31.5313V29.7391C17.018 29.0597 17.5728 28.507 18.2548 28.507C18.9368 28.507 19.4916 29.0597 19.4916 29.7391V31.5313C19.4916 32.2107 18.9368 32.7634 18.2548 32.7634C17.5728 32.7634 17.018 32.2107 17.018 31.5313ZM20.5051 28.3677L20.2335 28.458C19.8465 27.867 19.2006 27.4593 18.4572 27.3962L19.7838 24.75L22.826 23.7383L20.5051 28.3677ZM28.8849 21.7235L31.9272 20.7118L29.6062 25.3411L26.5639 26.3528L28.8849 21.7235ZM36.4777 19.1985L34.1568 23.8279L31.1145 24.8395L33.4354 20.2102L36.4777 19.1985ZM41.0283 17.6852L38.7073 22.3145L35.6651 23.3262L37.9861 18.6969L41.0283 17.6852ZM46.9271 19.5811L44.7661 20.2998L46.2057 17.4282L46.9271 19.5811ZM45.5788 16.1719L43.2579 20.8013L40.2155 21.813L42.5365 17.1837L45.5788 16.1719ZM16.1501 25.9584L18.2755 25.2516L17.0351 27.7257C16.9409 27.7825 16.8512 27.8459 16.7662 27.9149L16.1264 26.0057C16.1199 25.9862 16.1304 25.965 16.1501 25.9584ZM48.8381 51.8799H17.6551C17.6344 51.8799 17.6176 51.8631 17.6176 51.8426V35.6757H44.6406C44.951 35.6757 45.2028 35.4249 45.2028 35.1156C45.2028 34.8063 44.951 34.5556 44.6406 34.5556H41.7999L45.4729 30.8966H48.6802L45.0072 34.5556H44.6406C44.3301 34.5556 44.0784 34.8063 44.0784 35.1156C44.0784 35.4249 44.3301 35.6757 44.6406 35.6757H48.8756V51.8426C48.8756 51.8632 48.8587 51.8799 48.8381 51.8799Z" fill="#F2AC24"/>
<path d="M44.6404 40.5295H21.8528C21.5423 40.5295 21.2906 40.7802 21.2906 41.0895C21.2906 41.3988 21.5423 41.6496 21.8528 41.6496H44.6404C44.9509 41.6496 45.2026 41.3988 45.2026 41.0895C45.2026 40.7802 44.9509 40.5295 44.6404 40.5295Z" fill="#F2AC24"/>
<path d="M44.6404 45.906H21.8528C21.5423 45.906 21.2906 46.1567 21.2906 46.466C21.2906 46.7753 21.5423 47.0261 21.8528 47.0261H44.6404C44.9509 47.0261 45.2026 46.7753 45.2026 46.466C45.2026 46.1567 44.9509 45.906 44.6404 45.906Z" fill="#F2AC24"/>
<defs>
<filter id="filter0_f" x="0" y="0" width="65" height="68" filterUnits="userSpaceOnUse" color-interpolation-filters="sRGB">
<feFlood flood-opacity="0" result="BackgroundImageFix"/>
<feBlend mode="normal" in="SourceGraphic" in2="BackgroundImageFix" result="shape"/>
<feGaussianBlur stdDeviation="7.5" result="effect1_foregroundBlur"/>
</filter>
</defs>
</svg>
