<svg width="62" height="69" viewBox="0 0 62 69" fill="none" xmlns="http://www.w3.org/2000/svg">
<g filter="url(#filter0_f)">
<path d="M42.3195 16.5697C41.9536 16.5697 41.5768 16.6173 41.2005 16.7105L41.49 17.8933C43.7844 17.3278 45.7851 19.081 45.7851 21.2692C45.7851 26.3947 39.9729 30.1722 37.5498 30.8834L37.8903 32.0534C40.9681 31.1497 46.9994 26.9297 47 21.2692C47 18.6776 44.9004 16.5697 42.3195 16.5697Z" fill="#F2AC24"/>
<path d="M16.2131 21.2692C16.2131 19.081 18.2132 17.3254 20.5082 17.8939L20.7989 16.7105C17.7623 15.961 15 18.3107 15 21.2692C15 26.9303 21.0319 31.1503 24.1085 32.0534L24.449 30.8834C22.0253 30.1716 16.2131 26.3947 16.2131 21.2692Z" fill="#F2AC24"/>
<path d="M33.1042 37.684H28.8952C28.5602 37.684 28.2884 37.9564 28.2884 38.2934V40.6059C28.2884 40.7894 28.3715 40.9643 28.5141 41.08C28.6227 41.1684 28.7575 41.2153 28.8952 41.2153C28.9377 41.2153 28.9808 41.2104 29.0232 41.2013C30.2733 40.9301 31.7267 40.9301 32.9761 41.2013C33.1558 41.2391 33.3427 41.1952 33.4853 41.08C33.6279 40.9643 33.711 40.7906 33.711 40.6059V38.2934C33.711 37.9564 33.4398 37.684 33.1042 37.684ZM32.4974 39.8796C31.5252 39.7449 30.4742 39.7443 29.502 39.8802V38.9021H32.4974V39.8796Z" fill="#F2AC24"/>
<path d="M39.1901 50.5302H22.8093C22.4743 50.5302 22.2025 50.8026 22.2025 51.1396V53.3906C22.2025 53.7276 22.4743 54 22.8093 54H39.1901C39.5257 54 39.7969 53.7276 39.7969 53.3906V51.1396C39.7969 50.8026 39.5257 50.5302 39.1901 50.5302ZM38.5833 52.7812H23.4161V51.749H38.5833V52.7812Z" fill="#F2AC24"/>
<path d="M38.1397 41.9447H23.8597C23.5248 41.9447 23.2529 42.2171 23.2529 42.5541V51.1396C23.2529 51.4766 23.5248 51.749 23.8597 51.749H38.1397C38.4746 51.749 38.7465 51.476 38.7465 51.1396V42.5541C38.7465 42.2171 38.4752 41.9447 38.1397 41.9447ZM37.5328 50.5302H24.4666V43.1635H37.5328V50.5302Z" fill="#F2AC24"/>
<path d="M35.7129 44.3816H26.287C25.9521 44.3816 25.6802 44.654 25.6802 44.991V48.7015C25.6802 49.0385 25.9521 49.3109 26.287 49.3109H35.7129C36.0479 49.3109 36.3198 49.0379 36.3198 48.7015V44.991C36.3198 44.654 36.0485 44.3816 35.7129 44.3816ZM35.1061 48.0921H26.8939V45.6004H35.1061V48.0921Z" fill="#F2AC24"/>
<path d="M41.6945 15.3065C41.5003 15.1091 41.2418 15 40.9663 15H21.0337C20.7594 15 20.5009 15.1085 20.3067 15.3047C20.1125 15.5015 20.0064 15.7617 20.0076 16.0384C20.0118 16.4534 20.0282 16.8616 20.047 17.3266C20.0622 17.702 20.0834 18.0737 20.1083 18.4436C20.4111 22.9566 21.4124 27.0803 23.0047 30.369C23.2389 30.8529 23.492 31.327 23.756 31.7767C24.972 33.8504 26.3647 35.3379 27.897 36.1989C28.0578 36.2891 28.2489 36.3007 28.4164 36.2337C28.5572 36.2385 28.7162 36.2385 28.8946 36.2385H33.5927C33.6613 36.2641 33.7335 36.2769 33.8057 36.2769C33.9076 36.2769 34.0096 36.2513 34.1024 36.1995C35.6341 35.3391 37.0273 33.851 38.2434 31.7773C38.5056 31.3282 38.758 30.8547 38.9935 30.3703C40.587 27.0796 41.5883 22.9554 41.8905 18.4442C41.9148 18.0743 41.936 17.7038 41.9512 17.3254C41.9688 16.8994 41.9858 16.4729 41.99 16.0414C41.9936 15.7648 41.8887 15.504 41.6945 15.3065ZM40.7387 17.2766C40.7229 17.6416 40.7035 18.0024 40.6793 18.3619C40.388 22.7183 39.4274 26.686 37.9018 29.8365C37.6809 30.2923 37.4436 30.7377 37.1973 31.1588C36.162 32.9242 34.9593 34.2538 33.7074 35.0192H28.8952C28.8964 35.0198 28.4874 35.0192 28.2926 35.0192C27.0401 34.2532 25.8374 32.9242 24.8027 31.1582C24.5552 30.7359 24.3179 30.2917 24.0976 29.8365C22.5726 26.6872 21.6126 22.7196 21.3201 18.3619C21.2965 18.003 21.2758 17.6416 21.2589 17.2218C21.2455 16.8885 21.2315 16.5551 21.2255 16.2188H40.7733C40.7672 16.574 40.7527 16.925 40.7387 17.2766Z" fill="#F2AC24"/>
<path d="M33.1042 35.0198H28.8679C27.8466 35.0198 27.7453 37.0082 27.7453 37.0283C27.7453 37.0472 27.8642 38.9033 28.8952 38.9033H33.1321C34.1358 38.9033 34.2547 37.0472 34.2547 37.0283C34.2547 37.0082 34.1534 35.0198 33.1042 35.0198ZM32.8827 37.6846H29.1167C29.0378 37.4847 28.9607 37.1526 28.9583 37.0289C28.9601 36.8808 29.0481 36.4738 29.1349 36.2385H32.8645C32.9519 36.4738 33.0393 36.8808 33.0411 37.0277C33.0393 37.1526 32.9616 37.4853 32.8827 37.6846Z" fill="#F2AC24"/>
<path d="M33.2322 40.01C31.8147 39.7035 30.1853 39.7022 28.7672 40.01C26.7567 40.4469 25.5564 41.3981 25.5564 42.5535C25.5564 42.8905 25.8283 43.1629 26.1633 43.1629H35.8361C36.1711 43.1629 36.443 42.8905 36.443 42.5535C36.443 41.3975 35.2427 40.4469 33.2322 40.01ZM27.1985 41.9441C27.5735 41.6608 28.1889 41.3829 29.0232 41.2013C30.2739 40.9301 31.7273 40.9301 32.9755 41.2013C33.8105 41.3829 34.4259 41.6608 34.8009 41.9441H27.1985Z" fill="#F2AC24"/>
</g>
<path d="M42.3195 16.5697C41.9536 16.5697 41.5768 16.6173 41.2005 16.7105L41.49 17.8933C43.7844 17.3278 45.7851 19.081 45.7851 21.2692C45.7851 26.3947 39.9729 30.1722 37.5498 30.8834L37.8903 32.0534C40.9681 31.1497 46.9994 26.9297 47 21.2692C47 18.6776 44.9004 16.5697 42.3195 16.5697Z" fill="#F2AC24"/>
<path d="M16.2131 21.2692C16.2131 19.081 18.2132 17.3254 20.5082 17.8939L20.7989 16.7105C17.7623 15.961 15 18.3107 15 21.2692C15 26.9303 21.0319 31.1503 24.1085 32.0534L24.449 30.8834C22.0253 30.1716 16.2131 26.3947 16.2131 21.2692Z" fill="#F2AC24"/>
<path d="M33.1042 37.684H28.8952C28.5602 37.684 28.2884 37.9564 28.2884 38.2934V40.6059C28.2884 40.7894 28.3715 40.9643 28.5141 41.08C28.6227 41.1684 28.7575 41.2153 28.8952 41.2153C28.9377 41.2153 28.9808 41.2104 29.0232 41.2013C30.2733 40.9301 31.7267 40.9301 32.9761 41.2013C33.1558 41.2391 33.3427 41.1952 33.4853 41.08C33.6279 40.9643 33.711 40.7906 33.711 40.6059V38.2934C33.711 37.9564 33.4398 37.684 33.1042 37.684ZM32.4974 39.8796C31.5252 39.7449 30.4742 39.7443 29.502 39.8802V38.9021H32.4974V39.8796Z" fill="#F2AC24"/>
<path d="M39.1901 50.5302H22.8093C22.4743 50.5302 22.2025 50.8026 22.2025 51.1396V53.3906C22.2025 53.7276 22.4743 54 22.8093 54H39.1901C39.5257 54 39.7969 53.7276 39.7969 53.3906V51.1396C39.7969 50.8026 39.5257 50.5302 39.1901 50.5302ZM38.5833 52.7812H23.4161V51.749H38.5833V52.7812Z" fill="#F2AC24"/>
<path d="M38.1397 41.9447H23.8597C23.5248 41.9447 23.2529 42.2171 23.2529 42.5541V51.1396C23.2529 51.4766 23.5248 51.749 23.8597 51.749H38.1397C38.4746 51.749 38.7465 51.476 38.7465 51.1396V42.5541C38.7465 42.2171 38.4752 41.9447 38.1397 41.9447ZM37.5328 50.5302H24.4666V43.1635H37.5328V50.5302Z" fill="#F2AC24"/>
<path d="M35.7129 44.3816H26.287C25.9521 44.3816 25.6802 44.654 25.6802 44.991V48.7015C25.6802 49.0385 25.9521 49.3109 26.287 49.3109H35.7129C36.0479 49.3109 36.3198 49.0379 36.3198 48.7015V44.991C36.3198 44.654 36.0485 44.3816 35.7129 44.3816ZM35.1061 48.0921H26.8939V45.6004H35.1061V48.0921Z" fill="#F2AC24"/>
<path d="M41.6945 15.3065C41.5003 15.1091 41.2418 15 40.9663 15H21.0337C20.7594 15 20.5009 15.1085 20.3067 15.3047C20.1125 15.5015 20.0064 15.7617 20.0076 16.0384C20.0118 16.4534 20.0282 16.8616 20.047 17.3266C20.0622 17.702 20.0834 18.0737 20.1083 18.4436C20.4111 22.9566 21.4124 27.0803 23.0047 30.369C23.2389 30.8529 23.492 31.327 23.756 31.7767C24.972 33.8504 26.3647 35.3379 27.897 36.1989C28.0578 36.2891 28.2489 36.3007 28.4164 36.2337C28.5572 36.2385 28.7162 36.2385 28.8946 36.2385H33.5927C33.6613 36.2641 33.7335 36.2769 33.8057 36.2769C33.9076 36.2769 34.0096 36.2513 34.1024 36.1995C35.6341 35.3391 37.0273 33.851 38.2434 31.7773C38.5056 31.3282 38.758 30.8547 38.9935 30.3703C40.587 27.0796 41.5883 22.9554 41.8905 18.4442C41.9148 18.0743 41.936 17.7038 41.9512 17.3254C41.9688 16.8994 41.9858 16.4729 41.99 16.0414C41.9936 15.7648 41.8887 15.504 41.6945 15.3065ZM40.7387 17.2766C40.7229 17.6416 40.7035 18.0024 40.6793 18.3619C40.388 22.7183 39.4274 26.686 37.9018 29.8365C37.6809 30.2923 37.4436 30.7377 37.1973 31.1588C36.162 32.9242 34.9593 34.2538 33.7074 35.0192H28.8952C28.8964 35.0198 28.4874 35.0192 28.2926 35.0192C27.0401 34.2532 25.8374 32.9242 24.8027 31.1582C24.5552 30.7359 24.3179 30.2917 24.0976 29.8365C22.5726 26.6872 21.6126 22.7196 21.3201 18.3619C21.2965 18.003 21.2758 17.6416 21.2589 17.2218C21.2455 16.8885 21.2315 16.5551 21.2255 16.2188H40.7733C40.7672 16.574 40.7527 16.925 40.7387 17.2766Z" fill="#F2AC24"/>
<path d="M33.1042 35.0198H28.8679C27.8466 35.0198 27.7453 37.0082 27.7453 37.0283C27.7453 37.0472 27.8642 38.9033 28.8952 38.9033H33.1321C34.1358 38.9033 34.2547 37.0472 34.2547 37.0283C34.2547 37.0082 34.1534 35.0198 33.1042 35.0198ZM32.8827 37.6846H29.1167C29.0378 37.4847 28.9607 37.1526 28.9583 37.0289C28.9601 36.8808 29.0481 36.4738 29.1349 36.2385H32.8645C32.9519 36.4738 33.0393 36.8808 33.0411 37.0277C33.0393 37.1526 32.9616 37.4853 32.8827 37.6846Z" fill="#F2AC24"/>
<path d="M33.2322 40.01C31.8147 39.7035 30.1853 39.7022 28.7672 40.01C26.7567 40.4469 25.5564 41.3981 25.5564 42.5535C25.5564 42.8905 25.8283 43.1629 26.1633 43.1629H35.8361C36.1711 43.1629 36.443 42.8905 36.443 42.5535C36.443 41.3975 35.2427 40.4469 33.2322 40.01ZM27.1985 41.9441C27.5735 41.6608 28.1889 41.3829 29.0232 41.2013C30.2739 40.9301 31.7273 40.9301 32.9755 41.2013C33.8105 41.3829 34.4259 41.6608 34.8009 41.9441H27.1985Z" fill="#F2AC24"/>
<defs>
<filter id="filter0_f" x="0" y="0" width="62" height="69" filterUnits="userSpaceOnUse" color-interpolation-filters="sRGB">
<feFlood flood-opacity="0" result="BackgroundImageFix"/>
<feBlend mode="normal" in="SourceGraphic" in2="BackgroundImageFix" result="shape"/>
<feGaussianBlur stdDeviation="7.5" result="effect1_foregroundBlur"/>
</filter>
</defs>
</svg>
