<svg width="63" height="58" viewBox="0 0 63 58" fill="none" xmlns="http://www.w3.org/2000/svg">
<g filter="url(#filter0_f)">
<path d="M28.0201 35.3689C27.8955 35.3689 27.7699 35.3277 27.6675 35.2438L24.142 32.3568C24.0204 32.2571 23.9505 32.1115 23.9505 31.9577C23.9505 31.8042 24.0207 31.6586 24.142 31.5589L27.6675 28.672C27.8964 28.4842 28.2403 28.5108 28.4354 28.731C28.6303 28.9515 28.603 29.2821 28.3737 29.4696L25.3356 31.9577L28.3737 34.4459C28.603 34.6336 28.6303 34.9642 28.4354 35.1844C28.3275 35.3063 28.1743 35.3689 28.0201 35.3689Z" fill="#F2AC24"/>
<path d="M34.9799 35.3689C34.8257 35.3689 34.6725 35.3063 34.5649 35.1844C34.3697 34.9642 34.3974 34.6336 34.6263 34.4459L37.6644 31.9577L34.6263 29.4696C34.3974 29.2821 34.3697 28.9515 34.5649 28.731C34.7597 28.5108 35.1039 28.4842 35.3325 28.672L38.858 31.5589C38.9796 31.6586 39.0495 31.8042 39.0495 31.9577C39.0495 32.1115 38.9796 32.2571 38.858 32.3568L35.3325 35.2438C35.2301 35.3277 35.1045 35.3689 34.9799 35.3689Z" fill="#F2AC24"/>
<path d="M30.252 37.5343C30.2146 37.5343 30.1769 37.5305 30.1389 37.5229C29.8446 37.4632 29.6561 37.1852 29.7181 36.9021L31.9153 26.8697C31.9773 26.5867 32.2661 26.4054 32.5607 26.4651C32.855 26.5247 33.0435 26.8025 32.9815 27.0858L30.7843 37.1182C30.7302 37.365 30.504 37.5343 30.252 37.5343Z" fill="#F2AC24"/>
<path d="M44.342 43H18.658C16.6411 43 15 41.422 15 39.4821V18.5179C15 16.5783 16.6411 15 18.658 15H44.342C46.3589 15 48 16.5783 48 18.5179V39.4821C48 41.422 46.3589 43 44.342 43ZM18.658 16.0479C17.2419 16.0479 16.0896 17.156 16.0896 18.5179V39.4821C16.0896 40.844 17.2419 41.9521 18.658 41.9521H44.342C45.7581 41.9521 46.9104 40.844 46.9104 39.4821V18.5179C46.9104 17.156 45.7581 16.0479 44.342 16.0479H18.658Z" fill="#F2AC24"/>
<path d="M47.4552 23.3898H15.5448C15.2438 23.3898 15 23.1553 15 22.8659C15 22.5767 15.2438 22.3419 15.5448 22.3419H47.4552C47.7562 22.3419 48 22.5767 48 22.8659C48 23.1553 47.7562 23.3898 47.4552 23.3898Z" fill="#F2AC24"/>
<path d="M24.3086 20.8827C23.3582 20.8827 22.5845 20.1386 22.5845 19.2246C22.5845 18.3103 23.3582 17.5665 24.3086 17.5665C25.2593 17.5665 26.0327 18.3103 26.0327 19.2246C26.0327 20.1386 25.2593 20.8827 24.3086 20.8827ZM24.3086 18.6144C23.959 18.6144 23.6741 18.8881 23.6741 19.2246C23.6741 19.5611 23.959 19.8348 24.3086 19.8348C24.6585 19.8348 24.9431 19.5611 24.9431 19.2246C24.9431 18.8881 24.6585 18.6144 24.3086 18.6144Z" fill="#F2AC24"/>
<path d="M19.0113 20.8666C18.0606 20.8666 17.2872 20.1228 17.2872 19.2085C17.2872 18.2942 18.0606 17.5504 19.0113 17.5504C19.962 17.5504 20.7354 18.2942 20.7354 19.2085C20.7354 20.1228 19.962 20.8666 19.0113 20.8666ZM19.0113 18.5983C18.6617 18.5983 18.3768 18.8723 18.3768 19.2085C18.3768 19.545 18.6617 19.8187 19.0113 19.8187C19.3612 19.8187 19.6458 19.545 19.6458 19.2085C19.6458 18.8723 19.3612 18.5983 19.0113 18.5983Z" fill="#F2AC24"/>
<path d="M29.6059 20.8985C28.6556 20.8985 27.8821 20.1546 27.8821 19.2404C27.8821 18.3264 28.6556 17.5826 29.6059 17.5826C30.5566 17.5826 31.33 18.3264 31.33 19.2404C31.33 20.1546 30.5566 20.8985 29.6059 20.8985ZM29.6059 18.6302C29.2563 18.6302 28.9717 18.9038 28.9717 19.2404C28.9717 19.5769 29.2563 19.8506 29.6059 19.8506C29.9559 19.8506 30.2404 19.5769 30.2404 19.2404C30.2404 18.9038 29.9559 18.6302 29.6059 18.6302Z" fill="#F2AC24"/>
</g>
<path d="M28.0201 35.3689C27.8955 35.3689 27.7699 35.3277 27.6675 35.2438L24.142 32.3568C24.0204 32.2571 23.9505 32.1115 23.9505 31.9577C23.9505 31.8042 24.0207 31.6586 24.142 31.5589L27.6675 28.672C27.8964 28.4842 28.2403 28.5108 28.4354 28.731C28.6303 28.9515 28.603 29.2821 28.3737 29.4696L25.3356 31.9577L28.3737 34.4459C28.603 34.6336 28.6303 34.9642 28.4354 35.1844C28.3275 35.3063 28.1743 35.3689 28.0201 35.3689Z" fill="#F2AC24"/>
<path d="M34.9799 35.3689C34.8257 35.3689 34.6725 35.3063 34.5649 35.1844C34.3697 34.9642 34.3974 34.6336 34.6263 34.4459L37.6644 31.9577L34.6263 29.4696C34.3974 29.2821 34.3697 28.9515 34.5649 28.731C34.7597 28.5108 35.1039 28.4842 35.3325 28.672L38.858 31.5589C38.9796 31.6586 39.0495 31.8042 39.0495 31.9577C39.0495 32.1115 38.9796 32.2571 38.858 32.3568L35.3325 35.2438C35.2301 35.3277 35.1045 35.3689 34.9799 35.3689Z" fill="#F2AC24"/>
<path d="M30.252 37.5343C30.2146 37.5343 30.1769 37.5305 30.1389 37.5229C29.8446 37.4632 29.6561 37.1852 29.7181 36.9021L31.9153 26.8697C31.9773 26.5867 32.2661 26.4054 32.5607 26.4651C32.855 26.5247 33.0435 26.8025 32.9815 27.0858L30.7843 37.1182C30.7302 37.365 30.504 37.5343 30.252 37.5343Z" fill="#F2AC24"/>
<path d="M44.342 43H18.658C16.6411 43 15 41.422 15 39.4821V18.5179C15 16.5783 16.6411 15 18.658 15H44.342C46.3589 15 48 16.5783 48 18.5179V39.4821C48 41.422 46.3589 43 44.342 43ZM18.658 16.0479C17.2419 16.0479 16.0896 17.156 16.0896 18.5179V39.4821C16.0896 40.844 17.2419 41.9521 18.658 41.9521H44.342C45.7581 41.9521 46.9104 40.844 46.9104 39.4821V18.5179C46.9104 17.156 45.7581 16.0479 44.342 16.0479H18.658Z" fill="#F2AC24"/>
<path d="M47.4552 23.3898H15.5448C15.2438 23.3898 15 23.1553 15 22.8659C15 22.5767 15.2438 22.3419 15.5448 22.3419H47.4552C47.7562 22.3419 48 22.5767 48 22.8659C48 23.1553 47.7562 23.3898 47.4552 23.3898Z" fill="#F2AC24"/>
<path d="M24.3086 20.8827C23.3582 20.8827 22.5845 20.1386 22.5845 19.2246C22.5845 18.3103 23.3582 17.5665 24.3086 17.5665C25.2593 17.5665 26.0327 18.3103 26.0327 19.2246C26.0327 20.1386 25.2593 20.8827 24.3086 20.8827ZM24.3086 18.6144C23.959 18.6144 23.6741 18.8881 23.6741 19.2246C23.6741 19.5611 23.959 19.8348 24.3086 19.8348C24.6585 19.8348 24.9431 19.5611 24.9431 19.2246C24.9431 18.8881 24.6585 18.6144 24.3086 18.6144Z" fill="#F2AC24"/>
<path d="M19.0113 20.8666C18.0606 20.8666 17.2872 20.1228 17.2872 19.2085C17.2872 18.2942 18.0606 17.5504 19.0113 17.5504C19.962 17.5504 20.7354 18.2942 20.7354 19.2085C20.7354 20.1228 19.962 20.8666 19.0113 20.8666ZM19.0113 18.5983C18.6617 18.5983 18.3768 18.8723 18.3768 19.2085C18.3768 19.545 18.6617 19.8187 19.0113 19.8187C19.3612 19.8187 19.6458 19.545 19.6458 19.2085C19.6458 18.8723 19.3612 18.5983 19.0113 18.5983Z" fill="#F2AC24"/>
<path d="M29.6059 20.8985C28.6556 20.8985 27.8821 20.1546 27.8821 19.2404C27.8821 18.3264 28.6556 17.5826 29.6059 17.5826C30.5566 17.5826 31.33 18.3264 31.33 19.2404C31.33 20.1546 30.5566 20.8985 29.6059 20.8985ZM29.6059 18.6302C29.2563 18.6302 28.9717 18.9038 28.9717 19.2404C28.9717 19.5769 29.2563 19.8506 29.6059 19.8506C29.9559 19.8506 30.2404 19.5769 30.2404 19.2404C30.2404 18.9038 29.9559 18.6302 29.6059 18.6302Z" fill="#F2AC24"/>
<defs>
<filter id="filter0_f" x="0" y="0" width="63" height="58" filterUnits="userSpaceOnUse" color-interpolation-filters="sRGB">
<feFlood flood-opacity="0" result="BackgroundImageFix"/>
<feBlend mode="normal" in="SourceGraphic" in2="BackgroundImageFix" result="shape"/>
<feGaussianBlur stdDeviation="7.5" result="effect1_foregroundBlur"/>
</filter>
</defs>
</svg>
