<svg width="57" height="56" viewBox="0 0 57 56" fill="none" xmlns="http://www.w3.org/2000/svg">
<rect x="0.799988" width="55.4" height="55.4" rx="7.38667" fill="#3B5998"/>
<path d="M43.084 12.9267H15.4651C14.8009 12.9267 14.2643 13.4633 14.2643 14.1275V41.7464C14.2643 42.4106 14.8009 42.9472 15.4651 42.9472H43.084C43.7482 42.9472 44.2849 42.4106 44.2849 41.7464V14.1275C44.2849 13.4633 43.7482 12.9267 43.084 12.9267ZM37.2188 21.6889C35.3387 21.6889 34.9747 22.582 34.9747 23.8954V26.7887H39.4628L38.8774 31.318H34.9747V42.9472H30.2953V31.3218H26.3813V26.7887H30.2953V23.4489C30.2953 19.5725 32.6631 17.4598 36.123 17.4598C37.7816 17.4598 39.2039 17.5836 39.6204 17.6399V21.6889H37.2188Z" fill="white"/>
</svg>
