<svg width="27" height="21" viewBox="0 0 27 21" fill="none" xmlns="http://www.w3.org/2000/svg">
<path d="M22.7886 2.57786C22.709 2.64887 22.6126 2.69547 22.5084 2.71174C20.2547 3.06801 18.6301 2.51264 17.3272 2.06555C16.5256 1.79196 15.8349 1.55444 15.1364 1.55444C13.958 1.55444 13.0453 2.17732 12.163 2.7793C11.9578 2.91902 11.7582 3.05524 11.5609 3.17984L8.63897 6.21403C8.2387 6.62968 8.14005 7.2619 8.39343 7.78698C8.61653 8.25154 9.06616 8.5403 9.56623 8.5403H10.0147C10.3197 8.5403 10.6056 8.43551 10.8411 8.23757C11.0552 8.05593 11.3019 7.84287 11.5653 7.61348C13.0016 6.36652 14.1621 5.38736 14.9391 5.08462C15.0041 5.05902 15.0691 5.04734 15.1364 5.04734C15.2687 5.04734 15.3999 5.09624 15.5031 5.18941L23.5096 12.3946C23.5689 12.448 23.6518 12.4626 23.7247 12.4326L26.7763 11.1762C26.8565 11.1432 26.9091 11.0627 26.9091 10.9732V0.30272C26.9091 0.131348 26.7276 0.026797 26.5876 0.117485L22.7886 2.57786Z" fill="#F2AC24"/>
<path d="M5.07126 12.0331C4.70462 12.0331 4.36264 12.2229 4.15971 12.5396L3.54753 13.4932C3.42755 13.6795 3.36364 13.8995 3.36364 14.1243V14.3886C3.36364 15.0173 3.85362 15.5261 4.45908 15.5261C4.82571 15.5261 5.1677 15.3363 5.37062 15.0196L5.98281 14.0661C6.10279 13.8798 6.1667 13.6597 6.1667 13.435V13.1707C6.16665 12.542 5.67671 12.0331 5.07126 12.0331Z" fill="#F2AC24"/>
<path d="M7.31365 13.1974H7.27555C6.93019 13.1974 6.60618 13.3662 6.39874 13.6527L5.26519 15.2233C5.12282 15.4201 5.04545 15.6588 5.04545 15.9056V16.135C5.04545 16.7637 5.53544 17.2726 6.1409 17.2726H6.179C6.52435 17.2726 6.84836 17.1038 7.05581 16.8173L8.18935 15.2467C8.33173 15.0499 8.40909 14.8112 8.40909 14.5644V14.335C8.40909 13.7062 7.9191 13.1974 7.31365 13.1974Z" fill="#F2AC24"/>
<path d="M9.55609 14.3618H9.51799C9.17264 14.3618 8.84862 14.5306 8.64118 14.817L7.50764 16.3877C7.36526 16.5844 7.2879 16.8231 7.2879 17.0699V17.2993C7.2879 17.928 7.77788 18.4368 8.38334 18.4368H8.42144C8.76679 18.4368 9.09081 18.268 9.29825 17.9816L10.4318 16.411C10.5742 16.2142 10.6515 15.9755 10.6515 15.7287V15.4993C10.6515 14.8705 10.1615 14.3618 9.55609 14.3618Z" fill="#F2AC24"/>
<path d="M11.7985 15.5261H11.7604C11.4151 15.5261 11.0911 15.6949 10.8836 15.9813L9.75008 17.5519C9.6077 17.7487 9.53034 17.9874 9.53034 18.2342V18.4636C9.53034 19.0923 10.0203 19.6011 10.6258 19.6011H10.6639C11.0092 19.6011 11.3332 19.4323 11.5407 19.1459L12.6742 17.5752C12.8166 17.3785 12.8929 17.1386 12.8929 16.893V16.6636H12.894C12.8939 16.0349 12.404 15.5261 11.7985 15.5261Z" fill="#F2AC24"/>
<path d="M14.6722 19.0003L13.6575 18.1027C13.6238 18.1574 13.6081 18.2226 13.5711 18.275L12.8502 19.2728L13.6048 19.9993C13.8447 20.2473 14.199 20.2333 14.4109 20.0133C14.6901 19.7234 14.8011 19.168 14.6722 19.0003Z" fill="#F2AC24"/>
<path d="M23.208 13.7412L15.1548 6.41904C15.0879 6.35822 14.9915 6.34722 14.9154 6.395C14.1923 6.84925 13.1127 7.78645 12.2851 8.50532C12.0183 8.7382 11.7682 8.95476 11.5507 9.13868C11.1124 9.51007 10.582 9.70453 10.0158 9.70453H9.56734C8.63897 9.70453 7.8059 9.16897 7.39107 8.30737C6.92016 7.334 7.1029 6.16273 7.84626 5.39079L10.9767 2.18546C10.9958 2.1734 11.0149 2.1612 11.0341 2.14889C11.1938 2.04623 11.1467 1.79731 10.9613 1.76576C9.32795 1.48781 7.49812 1.49789 5.47605 1.82798C4.34697 2.01774 3.20449 1.68826 2.33552 0.937288L0.293839 0.0182474C0.15502 -0.0442403 0 0.0614306 0 0.218545V10.9746C0 11.0628 0.0511002 11.1424 0.12952 11.1762L2.75548 12.3099C2.84826 12.35 2.95537 12.3163 3.0111 12.2295L3.22688 11.8934C3.63725 11.253 4.32679 10.8688 5.07126 10.8688C5.90655 10.8688 6.62636 11.3567 7.00425 12.0669C7.09396 12.0541 7.18252 12.0331 7.27444 12.0331C8.13664 12.0331 8.86434 12.521 9.24443 13.2312C9.33635 13.2183 9.42496 13.1974 9.51688 13.1974C10.3791 13.1974 11.1068 13.6852 11.4869 14.3954C11.5777 14.3838 11.6662 14.3617 11.7593 14.3617H11.7986C13.0207 14.3617 14.0152 15.3944 14.0152 16.6635V16.8905L15.4223 18.1328C15.4234 18.1352 15.4257 18.1363 15.4279 18.1387L15.9639 18.6114C16.2756 18.8699 16.6837 19.0189 17.0997 19.0189C17.5628 19.0189 17.9395 18.6277 17.9395 18.1468C17.9395 17.8872 17.8285 17.6438 17.6368 17.4773L12.5341 13.0623C12.2964 12.8562 12.2639 12.4895 12.4624 12.2426C12.6608 11.997 13.014 11.962 13.2528 12.1693L19.5563 17.624C19.7301 17.7731 19.9476 17.8546 20.1729 17.8546H20.3378C20.8703 17.8546 21.302 17.4051 21.302 16.8532C21.302 16.5622 21.1843 16.2897 20.9757 16.0988L14.7766 10.7348C14.5388 10.5287 14.5064 10.162 14.7059 9.91399C14.9055 9.666 15.2587 9.63571 15.4953 9.8395L21.6743 15.186C21.6844 15.1941 21.6945 15.2034 21.7034 15.2116L21.7954 15.2908C21.9703 15.4433 22.1923 15.5259 22.4199 15.5259H22.5702C23.1072 15.5259 23.5456 15.0707 23.5456 14.513C23.5455 14.2139 23.4233 13.9356 23.208 13.7412Z" fill="#F2AC24"/>
</svg>
