<svg width="56" height="56" viewBox="0 0 56 56" fill="none" xmlns="http://www.w3.org/2000/svg">
<rect x="0.599976" width="55.4" height="55.4" rx="7.38667" fill="#E94A79"/>
<path d="M28.4752 20.1367C26.4496 20.1367 24.507 20.9401 23.0747 22.3701C21.6424 23.8002 20.8378 25.7398 20.8378 27.7622C20.8378 29.7847 21.6424 31.7243 23.0747 33.1543C24.507 34.5844 26.4496 35.3878 28.4752 35.3878C30.5008 35.3878 32.4434 34.5844 33.8757 33.1543C35.308 31.7243 36.1127 29.7847 36.1127 27.7622C36.1127 25.7398 35.308 23.8002 33.8757 22.3701C32.4434 20.9401 30.5008 20.1367 28.4752 20.1367ZM28.4752 32.7146C27.1593 32.7146 25.8973 32.1926 24.9668 31.2636C24.0363 30.3345 23.5135 29.0745 23.5135 27.7606C23.5135 26.4467 24.0363 25.1866 24.9668 24.2576C25.8973 23.3285 27.1593 22.8066 28.4752 22.8066C29.7911 22.8066 31.0532 23.3285 31.9837 24.2576C32.9142 25.1866 33.4369 26.4467 33.4369 27.7606C33.4369 29.0745 32.9142 30.3345 31.9837 31.2636C31.0532 32.1926 29.7911 32.7146 28.4752 32.7146Z" fill="white"/>
<path d="M36.4149 21.6341C37.3983 21.6341 38.1954 20.8381 38.1954 19.8563C38.1954 18.8745 37.3983 18.0785 36.4149 18.0785C35.4316 18.0785 34.6344 18.8745 34.6344 19.8563C34.6344 20.8381 35.4316 21.6341 36.4149 21.6341Z" fill="white"/>
<path d="M42.5708 18.0489C42.1884 17.063 41.6041 16.1677 40.8552 15.4202C40.1063 14.6728 39.2094 14.0897 38.2219 13.7084C37.0662 13.2752 35.8454 13.041 34.6113 13.0157C33.0207 12.9465 32.5169 12.9267 28.4835 12.9267C24.45 12.9267 23.9331 12.9267 22.3557 13.0157C21.1225 13.0397 19.9025 13.274 18.7484 13.7084C17.7606 14.0893 16.8634 14.6722 16.1145 15.4197C15.3656 16.1672 14.7814 17.0627 14.3995 18.0489C13.9656 19.2026 13.7316 20.4217 13.7074 21.6539C13.6364 23.2403 13.6149 23.7433 13.6149 27.7721C13.6149 31.7993 13.6149 32.3122 13.7074 33.8904C13.7322 35.124 13.9651 36.341 14.3995 37.4971C14.7825 38.4828 15.3672 39.378 16.1163 40.1254C16.8654 40.8728 17.7624 41.4559 18.75 41.8376C19.902 42.2881 21.1225 42.5391 22.359 42.5797C23.9496 42.6489 24.4533 42.6704 28.4868 42.6704C32.5202 42.6704 33.0372 42.6704 34.6146 42.5797C35.8486 42.5546 37.0694 42.321 38.2252 41.8887C39.2125 41.5064 40.1091 40.9228 40.8579 40.1752C41.6067 39.4276 42.1912 38.5323 42.5741 37.5465C43.0085 36.3921 43.2414 35.1751 43.2661 33.9415C43.3372 32.3551 43.3586 31.8521 43.3586 27.8233C43.3586 23.7944 43.3586 23.2832 43.2661 21.705C43.2469 20.4554 43.0117 19.2185 42.5708 18.0489ZM40.559 33.7684C40.5484 34.7188 40.3746 35.6603 40.0453 36.5521C39.7973 37.1934 39.4176 37.7758 38.9306 38.2617C38.4436 38.7477 37.8601 39.1265 37.2176 39.3738C36.3344 39.701 35.4014 39.8745 34.4593 39.8866C32.8902 39.9592 32.4475 39.9773 28.424 39.9773C24.3972 39.9773 23.9859 39.9773 22.3871 39.8866C21.4455 39.8751 20.5129 39.7016 19.6304 39.3738C18.9857 39.128 18.3999 38.7499 17.9108 38.2638C17.4217 37.7778 17.0403 37.1946 16.7911 36.5521C16.4665 35.6699 16.2928 34.7394 16.2775 33.7997C16.2064 32.233 16.1899 31.7911 16.1899 27.7738C16.1899 23.7549 16.1899 23.3442 16.2775 21.7462C16.2881 20.7964 16.4619 19.8554 16.7911 18.9641C17.2949 17.663 18.3272 16.6389 19.6304 16.1408C20.5134 15.8145 21.4457 15.6411 22.3871 15.6279C23.9578 15.557 24.3988 15.5372 28.424 15.5372C32.4492 15.5372 32.8621 15.5372 34.4593 15.6279C35.4014 15.6393 36.3346 15.8128 37.2176 16.1408C37.86 16.3886 38.4434 16.7678 38.9304 17.254C39.4174 17.7402 39.7971 18.3227 40.0453 18.9641C40.37 19.8463 40.5436 20.7768 40.559 21.7165C40.63 23.2849 40.6482 23.7252 40.6482 27.7441C40.6482 31.7614 40.6482 32.1935 40.5772 33.77H40.559V33.7684Z" fill="white"/>
</svg>
