<svg width="56" height="56" viewBox="0 0 56 56" fill="none" xmlns="http://www.w3.org/2000/svg">
<circle cx="28" cy="28" r="28" transform="rotate(-180 28 28)" fill="#D9D9D9"/>
<g clip-path="url(#clip0)">
<path d="M20.0518 26.8119L30.3714 16.4926C31.0279 15.8358 32.0922 15.8358 32.7483 16.4926C33.4045 17.1488 33.4045 18.213 32.7483 18.8692L23.6171 28.0002L32.7481 37.1309C33.4043 37.7873 33.4043 38.8515 32.7481 39.5077C32.0919 40.1641 31.0276 40.1641 30.3712 39.5077L20.0515 29.1882C19.7234 28.8599 19.5596 28.4302 19.5596 28.0002C19.5596 27.57 19.7237 27.14 20.0518 26.8119Z" fill="black"/>
</g>
<defs>
<clipPath id="clip0">
<rect x="38.3999" y="40" width="24" height="24" transform="rotate(-180 38.3999 40)" fill="white"/>
</clipPath>
</defs>
</svg>
