<svg width="48" height="60" viewBox="0 0 48 60" fill="none" xmlns="http://www.w3.org/2000/svg">
<g filter="url(#filter0_f)">
<path d="M16.0647 28.515L28.9643 15.6158C29.7849 14.7949 31.1153 14.7949 31.9354 15.6158C32.7557 16.4361 32.7557 17.7664 31.9354 18.5866L20.5213 30.0003L31.9351 41.4137C32.7553 42.2343 32.7553 43.5645 31.9351 44.3847C31.1149 45.2053 29.7845 45.2053 28.964 44.3847L16.0644 31.4854C15.6543 31.0751 15.4495 30.5379 15.4495 30.0004C15.4495 29.4627 15.6547 28.9251 16.0647 28.515Z" fill="#ECAE37"/>
</g>
<g clip-path="url(#clip0)">
<path d="M16.0647 28.515L28.9642 15.6158C29.7848 14.7949 31.1152 14.7949 31.9354 15.6158C32.7556 16.4361 32.7556 17.7664 31.9354 18.5866L20.5213 30.0003L31.935 41.4137C32.7553 42.2343 32.7553 43.5645 31.935 44.3847C31.1148 45.2053 29.7845 45.2053 28.9639 44.3847L16.0643 31.4854C15.6542 31.0751 15.4494 30.5379 15.4494 30.0004C15.4494 29.4627 15.6546 28.9251 16.0647 28.515Z" fill="#F2AC24"/>
</g>
<defs>
<filter id="filter0_f" x="0.449463" y="0.00012207" width="47.1011" height="60" filterUnits="userSpaceOnUse" color-interpolation-filters="sRGB">
<feFlood flood-opacity="0" result="BackgroundImageFix"/>
<feBlend mode="normal" in="SourceGraphic" in2="BackgroundImageFix" result="shape"/>
<feGaussianBlur stdDeviation="7.5" result="effect1_foregroundBlur"/>
</filter>
<clipPath id="clip0">
<rect x="39" y="45" width="30" height="30" transform="rotate(-180 39 45)" fill="white"/>
</clipPath>
</defs>
</svg>
