<svg width="192" height="40" viewBox="0 0 192 40" fill="none" xmlns="http://www.w3.org/2000/svg">
<path d="M35.4873 27.6765V2.35122H40.6129V27.6765H35.4873Z" fill="url(#paint0_linear)"/>
<path d="M44.4896 27.6765V2.35122H48.0838L53.7095 15.5454V2.35122H57.96V27.6765H54.5221L48.8964 13.6694V27.6765H44.4896Z" fill="url(#paint1_linear)"/>
<path d="M64.1705 27.6765V6.19691H60.2638V2.35122H73.2029V6.19691H69.3586V27.6765H64.1705Z" fill="url(#paint2_linear)"/>
<path d="M75.4993 27.6765V2.35122H86.5319V5.91552H80.6562V12.6377H85.188V16.2332H80.6562V24.1747H86.5944V27.6765H75.4993Z" fill="url(#paint3_linear)"/>
<path d="M89.2034 27.6765V2.35122H95.7667C97.4752 2.35122 98.9337 2.54924 100.142 2.94527C101.372 3.32046 102.309 3.99788 102.955 4.97755C103.622 5.95721 103.955 7.31206 103.955 9.0421C103.955 10.0843 103.861 11.0118 103.674 11.8248C103.507 12.6168 103.195 13.3151 102.736 13.9196C102.299 14.5032 101.674 14.9722 100.861 15.3265L104.361 27.6765H99.0796L96.173 16.202H94.3602V27.6765H89.2034ZM94.3602 13.1379H95.8604C96.6939 13.1379 97.3502 13.0024 97.8294 12.7315C98.3086 12.4605 98.642 12.054 98.8295 11.5121C99.0379 10.9493 99.1421 10.2615 99.1421 9.44855C99.1421 8.2813 98.9233 7.39543 98.4857 6.79096C98.069 6.16565 97.2773 5.85299 96.1105 5.85299H94.3602V13.1379Z" fill="url(#paint4_linear)"/>
<path d="M106.174 27.6765L111.081 2.35122H116.801L121.676 27.6765H116.894L115.988 22.1112H111.988L111.019 27.6765H106.174ZM112.456 18.9534H115.488L113.957 8.72944L112.456 18.9534Z" fill="url(#paint5_linear)"/>
<path d="M130.938 28.0204C129.063 28.0204 127.573 27.6661 126.469 26.9574C125.385 26.2487 124.625 25.269 124.187 24.0184C123.75 22.7469 123.531 21.2774 123.531 19.6099V10.5116C123.531 8.76071 123.75 7.25995 124.187 6.00932C124.625 4.73784 125.385 3.75818 126.469 3.07033C127.573 2.38249 129.063 2.03856 130.938 2.03856C132.751 2.03856 134.168 2.3408 135.189 2.94527C136.23 3.54974 136.96 4.40434 137.376 5.50906C137.814 6.61379 138.033 7.89569 138.033 9.35476V11.4808H133.032V9.10463C133.032 8.521 133.001 7.97906 132.938 7.47881C132.876 6.95771 132.699 6.54084 132.407 6.22818C132.136 5.89468 131.657 5.72792 130.969 5.72792C130.282 5.72792 129.782 5.89468 129.469 6.22818C129.157 6.56168 128.959 6.9994 128.875 7.54134C128.792 8.06244 128.75 8.64606 128.75 9.29222V20.798C128.75 21.5067 128.803 22.132 128.907 22.674C129.032 23.1951 129.25 23.6015 129.563 23.8933C129.896 24.1643 130.365 24.2998 130.969 24.2998C131.636 24.2998 132.105 24.1435 132.376 23.8308C132.668 23.4973 132.845 23.0596 132.907 22.5176C132.991 21.9757 133.032 21.4025 133.032 20.798V18.328H138.033V20.4228C138.033 21.9028 137.824 23.2159 137.408 24.3623C136.991 25.4879 136.272 26.3842 135.251 27.0512C134.23 27.6973 132.793 28.0204 130.938 28.0204Z" fill="url(#paint6_linear)"/>
<path d="M143.556 27.6765V6.19691H139.65V2.35122H152.589V6.19691H148.745V27.6765H143.556Z" fill="url(#paint7_linear)"/>
<path d="M154.948 27.6765V2.35122H160.073V27.6765H154.948Z" fill="url(#paint8_linear)"/>
<path d="M167.544 27.6765L162.731 2.35122H167.2L170.201 19.8601L173.014 2.35122H177.67L172.857 27.6765H167.544Z" fill="url(#paint9_linear)"/>
<path d="M180.279 27.6765V2.35122H191.312V5.91552H185.436V12.6377H189.968V16.2332H185.436V24.1747H191.374V27.6765H180.279Z" fill="url(#paint10_linear)"/>
<path d="M155.614 39.918V34.6946H154.654V33.8824H157.663V34.6946H156.717V39.918H155.614Z" fill="url(#paint11_linear)"/>
<path d="M160.976 40C160.549 40 160.209 39.9205 159.955 39.7616C159.702 39.6026 159.521 39.3741 159.412 39.076C159.302 38.778 159.248 38.4253 159.248 38.0179V35.7602C159.248 35.3528 159.302 35.0051 159.412 34.717C159.521 34.4239 159.702 34.2004 159.955 34.0464C160.209 33.8924 160.549 33.8154 160.976 33.8154C161.413 33.8154 161.755 33.8924 162.004 34.0464C162.257 34.2004 162.438 34.4239 162.547 34.717C162.662 35.0051 162.719 35.3528 162.719 35.7602V38.0254C162.719 38.4278 162.662 38.778 162.547 39.076C162.438 39.3691 162.257 39.5976 162.004 39.7616C161.755 39.9205 161.413 40 160.976 40ZM160.976 39.1878C161.159 39.1878 161.294 39.1481 161.378 39.0686C161.467 38.9891 161.527 38.8798 161.557 38.7407C161.586 38.6016 161.601 38.4501 161.601 38.2862V35.5068C161.601 35.3379 161.586 35.1864 161.557 35.0523C161.527 34.9182 161.467 34.8138 161.378 34.7393C161.294 34.6599 161.159 34.6201 160.976 34.6201C160.802 34.6201 160.67 34.6599 160.581 34.7393C160.492 34.8138 160.432 34.9182 160.402 35.0523C160.372 35.1864 160.357 35.3379 160.357 35.5068V38.2862C160.357 38.4501 160.37 38.6016 160.395 38.7407C160.424 38.8798 160.484 38.9891 160.573 39.0686C160.663 39.1481 160.797 39.1878 160.976 39.1878Z" fill="url(#paint12_linear)"/>
<path d="M166.201 40C165.803 40 165.488 39.9156 165.255 39.7467C165.021 39.5778 164.852 39.3393 164.748 39.0313C164.649 38.7184 164.599 38.3508 164.599 37.9285V35.9017C164.599 35.4696 164.649 35.097 164.748 34.784C164.848 34.4711 165.021 34.2326 165.27 34.0687C165.523 33.8998 165.87 33.8154 166.312 33.8154C166.725 33.8154 167.052 33.8849 167.296 34.024C167.539 34.1631 167.713 34.3643 167.817 34.6276C167.926 34.8859 167.981 35.2013 167.981 35.5739V35.8868H166.931V35.5441C166.931 35.3503 166.916 35.1839 166.886 35.0448C166.861 34.9058 166.806 34.8014 166.722 34.7319C166.643 34.6574 166.511 34.6201 166.327 34.6201C166.134 34.6201 165.992 34.6673 165.903 34.7617C165.818 34.8561 165.764 34.9803 165.739 35.1343C165.719 35.2883 165.709 35.4571 165.709 35.6409V38.167C165.709 38.3756 165.726 38.5569 165.761 38.7109C165.796 38.8649 165.861 38.9841 165.955 39.0686C166.049 39.1481 166.183 39.1878 166.357 39.1878C166.536 39.1878 166.672 39.1431 166.767 39.0537C166.861 38.9643 166.926 38.8401 166.96 38.6811C167 38.5221 167.02 38.3334 167.02 38.1148V37.5485H166.372V36.8555H168.011V39.918H167.303L167.221 39.3219C167.142 39.5206 167.02 39.6846 166.856 39.8137C166.697 39.9379 166.479 40 166.201 40Z" fill="url(#paint13_linear)"/>
<path d="M170.004 39.918V33.8824H172.536V34.6574H171.106V36.3935H172.231V37.161H171.106V39.158H172.551V39.918H170.004Z" fill="url(#paint14_linear)"/>
<path d="M174.948 39.918V34.6946H173.987V33.8824H176.996V34.6946H176.05V39.918H174.948Z" fill="url(#paint15_linear)"/>
<path d="M178.714 39.918V33.8824H179.809V36.4084H181.038V33.8824H182.141V39.918H181.038V37.1908H179.809V39.918H178.714Z" fill="url(#paint16_linear)"/>
<path d="M184.218 39.918V33.8824H186.751V34.6574H185.321V36.3935H186.445V37.161H185.321V39.158H186.766V39.918H184.218Z" fill="url(#paint17_linear)"/>
<path d="M188.559 39.918V33.8824H190.004C190.411 33.8824 190.754 33.9321 191.032 34.0315C191.315 34.1258 191.528 34.2898 191.672 34.5232C191.821 34.7567 191.896 35.0746 191.896 35.477C191.896 35.7204 191.873 35.939 191.829 36.1327C191.784 36.3265 191.707 36.4929 191.598 36.632C191.493 36.7661 191.347 36.8704 191.158 36.9449L192 39.918H190.898L190.168 37.1536H189.661V39.918H188.559ZM189.661 36.4606H190.004C190.217 36.4606 190.386 36.4308 190.51 36.3712C190.639 36.3066 190.731 36.2073 190.786 36.0731C190.841 35.934 190.868 35.7577 190.868 35.5441C190.868 35.2411 190.811 35.015 190.697 34.866C190.587 34.712 190.376 34.635 190.063 34.635H189.661V36.4606Z" fill="url(#paint18_linear)"/>
<path fill-rule="evenodd" clip-rule="evenodd" d="M11.9243 0.0315965C11.6452 0.0632816 11.295 0.117681 11.1462 0.15242C10.9974 0.187159 10.7775 0.215599 10.6576 0.215599C10.5377 0.215599 10.2883 0.257527 10.1034 0.308745C9.91843 0.360027 9.56149 0.458518 9.31018 0.527614C9.05881 0.596774 8.79386 0.685148 8.72141 0.724023C8.64896 0.762898 8.42417 0.847773 8.22184 0.912543C7.34052 1.19491 5.49014 2.28435 4.83786 2.90501C4.7923 2.94834 4.5981 3.11256 4.40624 3.26984C2.60255 4.74924 1.15492 7.08133 0.397886 9.72748C0.274548 10.1585 0.241303 10.329 0.0811035 11.3499C-0.0705943 12.3168 2.05473e-05 14.6348 0.213831 15.7082C0.374602 16.5155 0.529472 17.0318 0.853107 17.8396C0.930193 18.0321 1.03374 18.2991 1.0831 18.4329C1.49746 19.5551 2.53301 21.0408 3.76201 22.2762C4.82212 23.3418 4.81793 23.3404 5.18293 22.7387C5.80946 21.7058 5.81054 21.6774 5.2467 21.1045C4.20232 20.0433 3.11259 18.4442 2.73312 17.4161C2.68351 17.2816 2.58688 17.0258 2.51848 16.8476C2.45003 16.6694 2.33544 16.2829 2.26381 15.9887C2.14536 15.5019 2.09841 15.2778 1.95211 14.4993C1.73811 13.3613 1.96518 11.0632 2.43093 9.65329C3.26625 7.12453 5.08904 4.84149 7.34338 3.50041C8.17521 3.00554 9.12137 2.57614 9.73546 2.41472C9.92738 2.36427 10.1843 2.29052 10.3065 2.25089C11.3182 1.92227 13.7843 1.83866 14.9697 2.09284C19.7182 3.11084 22.9635 6.3653 23.9786 11.1272C24.049 11.4574 24.1502 12.6341 24.1511 13.1314C24.1529 14.2785 23.8098 16.1504 23.4338 17.0443C22.6902 18.8126 21.8762 20.0156 20.5714 21.2754C19.9972 21.8296 20.009 21.7815 20.3105 22.3389C20.8827 23.3969 20.9647 23.45 21.4503 23.0783C22.7373 22.0931 24.5219 19.6398 25.1206 18.0325C25.1731 17.8915 25.2617 17.6543 25.3175 17.5056C25.5254 16.9511 25.7172 16.1928 25.8528 15.3901C26.7931 9.82304 24.3377 4.61314 19.3787 1.65269C19.0475 1.45494 18.705 1.27565 18.6178 1.25427C18.5306 1.23289 18.3255 1.1484 18.1622 1.06658C17.6492 0.809535 16.3543 0.411626 15.2869 0.183087C14.6072 0.0375134 12.6493 -0.0506701 11.9243 0.0315965ZM12.1147 5.23946C12.0449 5.27089 11.8963 5.29863 11.7847 5.30111C11.332 5.31104 10.3236 5.64539 9.50756 6.05602C7.39191 7.12072 5.83718 9.08086 5.35912 11.2863C5.31744 11.4787 5.25723 11.7397 5.22532 11.8663C5.15013 12.1649 5.15013 14.0979 5.22532 14.3965C5.25723 14.5231 5.31718 14.784 5.35868 14.9765C5.59298 16.0634 6.48502 17.6976 7.27828 18.4931C7.43398 18.6492 7.59361 18.5523 7.80653 18.1725C7.89935 18.0069 8.07154 17.7096 8.18917 17.5119C8.45145 17.0711 8.45323 16.992 8.20883 16.6308C6.08411 13.4901 7.06225 9.44403 10.3432 7.80214C13.7395 6.10253 17.6274 7.82211 18.7243 11.509C19.2181 13.1688 18.8134 15.2792 17.7238 16.7265C17.4441 17.0979 17.4178 17.2858 17.5964 17.6354C17.8901 18.2103 18.2263 18.6996 18.3389 18.716C18.6549 18.7617 19.8561 17.2285 20.1741 16.3735C20.2321 16.2175 20.3517 15.8895 20.4398 15.6446C21.9725 11.3848 19.4293 6.6595 14.938 5.42238C14.3136 5.25041 12.3698 5.12443 12.1147 5.23946ZM12.2098 12.9712C11.9149 13.1283 11.538 13.4577 11.2482 13.8119C11.0902 14.005 10.9796 14.3111 10.821 14.9933C10.7721 15.2038 10.7506 17.0753 10.7506 21.1134C10.7506 24.9572 10.7289 26.9439 10.6866 26.9701C10.5514 27.0539 10.3855 26.9125 9.92579 26.321C8.37639 24.3279 7.14511 23.8239 5.85438 24.6545C4.65317 25.4275 4.59632 26.9276 5.70293 28.6499C5.85114 28.8806 6.12421 29.3127 6.30966 29.6102C6.49517 29.9076 6.83765 30.4516 7.07075 30.819C7.30385 31.1865 7.64633 31.7305 7.83172 32.0279C8.01717 32.3254 8.3238 32.8081 8.51312 33.1007C8.7025 33.3932 9.02506 33.9141 9.22986 34.2581C9.43473 34.6022 9.69917 35.0356 9.81749 35.2214C9.93582 35.4071 10.1844 35.8024 10.3698 36.0999C10.5553 36.3973 10.9554 37.0272 11.2589 37.4996C11.5624 37.972 11.9002 38.5017 12.0095 38.6767C12.8291 39.9881 12.4264 39.9174 19.079 39.9174H24.5859L24.8927 39.7614C25.5342 39.4354 25.798 38.9261 25.8664 37.8814C25.9954 35.9133 26.0471 34.9929 26.1063 33.6185C26.1417 32.7962 26.1981 31.5507 26.2316 30.8509C26.4074 27.1877 26.3941 26.9904 25.9305 26.3814C25.1809 25.3966 24.2587 25.2871 23.3846 26.0789C23.0779 26.3569 22.9653 26.3393 22.9098 26.005C22.8874 25.8707 22.8456 25.632 22.8168 25.4746C22.5178 23.8407 20.8393 23.1945 19.7169 24.281C19.3913 24.5962 19.2822 24.5689 19.2308 24.1596C19.1128 23.2212 18.9838 22.9287 18.4528 22.3962C17.5261 21.4669 16.5305 21.5339 15.5456 22.592C15.1899 22.9742 15.1938 23.0159 15.1927 18.883C15.1922 16.8149 15.1662 15.0398 15.1349 14.9383C15.1036 14.8369 15.0291 14.5879 14.9694 14.3851C14.6156 13.1831 13.1868 12.4511 12.2098 12.9712Z" fill="url(#paint19_linear)"/>
<defs>
<linearGradient id="paint0_linear" x1="13.1679" y1="0" x2="13.1679" y2="39.918" gradientUnits="userSpaceOnUse">
<stop/>
<stop offset="1"/>
</linearGradient>
<linearGradient id="paint1_linear" x1="13.1679" y1="0" x2="13.1679" y2="39.918" gradientUnits="userSpaceOnUse">
<stop/>
<stop offset="1"/>
</linearGradient>
<linearGradient id="paint2_linear" x1="13.1679" y1="0" x2="13.1679" y2="39.918" gradientUnits="userSpaceOnUse">
<stop/>
<stop offset="1"/>
</linearGradient>
<linearGradient id="paint3_linear" x1="13.1679" y1="0" x2="13.1679" y2="39.918" gradientUnits="userSpaceOnUse">
<stop/>
<stop offset="1"/>
</linearGradient>
<linearGradient id="paint4_linear" x1="13.1679" y1="0" x2="13.1679" y2="39.918" gradientUnits="userSpaceOnUse">
<stop/>
<stop offset="1"/>
</linearGradient>
<linearGradient id="paint5_linear" x1="13.1679" y1="0" x2="13.1679" y2="39.918" gradientUnits="userSpaceOnUse">
<stop/>
<stop offset="1"/>
</linearGradient>
<linearGradient id="paint6_linear" x1="13.1679" y1="0" x2="13.1679" y2="39.918" gradientUnits="userSpaceOnUse">
<stop/>
<stop offset="1"/>
</linearGradient>
<linearGradient id="paint7_linear" x1="13.1679" y1="0" x2="13.1679" y2="39.918" gradientUnits="userSpaceOnUse">
<stop/>
<stop offset="1"/>
</linearGradient>
<linearGradient id="paint8_linear" x1="13.1679" y1="0" x2="13.1679" y2="39.918" gradientUnits="userSpaceOnUse">
<stop/>
<stop offset="1"/>
</linearGradient>
<linearGradient id="paint9_linear" x1="13.1679" y1="0" x2="13.1679" y2="39.918" gradientUnits="userSpaceOnUse">
<stop/>
<stop offset="1"/>
</linearGradient>
<linearGradient id="paint10_linear" x1="13.1679" y1="0" x2="13.1679" y2="39.918" gradientUnits="userSpaceOnUse">
<stop/>
<stop offset="1"/>
</linearGradient>
<linearGradient id="paint11_linear" x1="13.1679" y1="0" x2="13.1679" y2="39.918" gradientUnits="userSpaceOnUse">
<stop/>
<stop offset="1"/>
</linearGradient>
<linearGradient id="paint12_linear" x1="13.1679" y1="0" x2="13.1679" y2="39.918" gradientUnits="userSpaceOnUse">
<stop/>
<stop offset="1"/>
</linearGradient>
<linearGradient id="paint13_linear" x1="13.1679" y1="0" x2="13.1679" y2="39.918" gradientUnits="userSpaceOnUse">
<stop/>
<stop offset="1"/>
</linearGradient>
<linearGradient id="paint14_linear" x1="13.1679" y1="0" x2="13.1679" y2="39.918" gradientUnits="userSpaceOnUse">
<stop/>
<stop offset="1"/>
</linearGradient>
<linearGradient id="paint15_linear" x1="13.1679" y1="0" x2="13.1679" y2="39.918" gradientUnits="userSpaceOnUse">
<stop/>
<stop offset="1"/>
</linearGradient>
<linearGradient id="paint16_linear" x1="13.1679" y1="0" x2="13.1679" y2="39.918" gradientUnits="userSpaceOnUse">
<stop/>
<stop offset="1"/>
</linearGradient>
<linearGradient id="paint17_linear" x1="13.1679" y1="0" x2="13.1679" y2="39.918" gradientUnits="userSpaceOnUse">
<stop/>
<stop offset="1"/>
</linearGradient>
<linearGradient id="paint18_linear" x1="13.1679" y1="0" x2="13.1679" y2="39.918" gradientUnits="userSpaceOnUse">
<stop/>
<stop offset="1"/>
</linearGradient>
<linearGradient id="paint19_linear" x1="13.1679" y1="0" x2="13.1679" y2="39.918" gradientUnits="userSpaceOnUse">
<stop/>
<stop offset="1"/>
</linearGradient>
</defs>
</svg>
