<svg width="44" height="48" viewBox="0 0 44 48" fill="none" xmlns="http://www.w3.org/2000/svg">
<g opacity="0.5" filter="url(#filter0_f)">
<path d="M21.9823 18.8046C21.987 18.8046 21.9917 18.8042 21.9964 18.8042C22.0011 18.8042 22.0058 18.8046 22.0105 18.8046C24.333 18.8046 26.2156 16.8336 26.2156 14.4022C26.2156 11.971 24.333 10 22.0105 10C22.0058 10 22.0011 10.0003 21.9964 10.0003C21.9917 10.0003 21.987 10 21.9823 10C19.6598 10 17.7773 11.971 17.7773 14.4022C17.7772 16.8336 19.6597 18.8046 21.9823 18.8046Z" fill="#F2AC24"/>
<path d="M32.544 27.8093L27.802 24.1997L26.3025 20.3661C26.0171 19.6366 25.3374 19.2017 24.6268 19.2181L24.6265 19.2164H19.2143L19.2141 19.2181C18.5034 19.2017 17.8238 19.6366 17.5384 20.3661L16.0388 24.1997L11.2967 27.8093C10.5068 28.4106 10.3319 29.5685 10.9064 30.3956C11.2525 30.8936 11.7916 31.1583 12.3383 31.1583C12.6989 31.1583 13.0628 31.0431 13.3768 30.8039L18.504 26.9016L18.3733 28.3144L13.5254 33.4584C12.8529 34.191 12.6632 35.2733 13.0436 36.2083C13.424 37.1431 14.3009 37.75 15.2716 37.75H17.5888C16.9917 37.1842 16.6109 36.3399 16.6109 35.3971C16.6109 33.6972 17.8454 32.3144 19.3628 32.3144C19.3628 32.3144 21.1378 32.3144 22.0022 32.3144C22.8668 32.3144 23.5528 33.0543 23.5528 33.0543H19.3628C18.2096 33.0543 17.2713 34.1052 17.2713 35.3971C17.2713 36.689 18.2096 37.7399 19.3628 37.7399H23.4207C23.4662 37.7364 23.5125 37.7363 23.5574 37.7306H28.4625C29.4332 37.7306 30.31 37.1237 30.6904 36.1888C31.0708 35.254 30.8812 34.1717 30.2087 33.439L25.4664 28.2886H25.4651L25.3368 26.9016L30.464 30.8039C30.7778 31.0431 31.1419 31.1583 31.5024 31.1583C32.0491 31.1583 32.5882 30.8936 32.9343 30.3956C33.5088 29.5685 33.334 28.4106 32.544 27.8093Z" fill="#F2AC24"/>
</g>
<path d="M21.9823 18.8046C21.987 18.8046 21.9917 18.8042 21.9964 18.8042C22.0011 18.8042 22.0058 18.8046 22.0105 18.8046C24.333 18.8046 26.2156 16.8336 26.2156 14.4022C26.2156 11.971 24.333 10 22.0105 10C22.0058 10 22.0011 10.0003 21.9964 10.0003C21.9917 10.0003 21.987 10 21.9823 10C19.6598 10 17.7773 11.971 17.7773 14.4022C17.7772 16.8336 19.6597 18.8046 21.9823 18.8046Z" fill="#F2AC24"/>
<path d="M32.544 27.8093L27.802 24.1997L26.3025 20.3661C26.0171 19.6366 25.3374 19.2017 24.6268 19.2181L24.6265 19.2164H19.2143L19.2141 19.2181C18.5034 19.2017 17.8238 19.6366 17.5384 20.3661L16.0388 24.1997L11.2967 27.8093C10.5068 28.4106 10.3319 29.5685 10.9064 30.3956C11.2525 30.8936 11.7916 31.1583 12.3383 31.1583C12.6989 31.1583 13.0628 31.0431 13.3768 30.8039L18.504 26.9016L18.3733 28.3144L13.5254 33.4584C12.8529 34.191 12.6632 35.2733 13.0436 36.2083C13.424 37.1431 14.3009 37.75 15.2716 37.75H17.5888C16.9917 37.1842 16.6109 36.3399 16.6109 35.3971C16.6109 33.6972 17.8454 32.3144 19.3628 32.3144C19.3628 32.3144 21.1378 32.3144 22.0022 32.3144C22.8668 32.3144 23.5528 33.0543 23.5528 33.0543H19.3628C18.2096 33.0543 17.2713 34.1052 17.2713 35.3971C17.2713 36.689 18.2096 37.7399 19.3628 37.7399H23.4207C23.4662 37.7364 23.5125 37.7363 23.5574 37.7306H28.4625C29.4332 37.7306 30.31 37.1237 30.6904 36.1888C31.0708 35.254 30.8812 34.1717 30.2087 33.439L25.4664 28.2886H25.4651L25.3368 26.9016L30.464 30.8039C30.7778 31.0431 31.1419 31.1583 31.5024 31.1583C32.0491 31.1583 32.5882 30.8936 32.9343 30.3956C33.5088 29.5685 33.334 28.4106 32.544 27.8093Z" fill="#F2AC24"/>
<defs>
<filter id="filter0_f" x="0.568115" y="0" width="42.7045" height="47.75" filterUnits="userSpaceOnUse" color-interpolation-filters="sRGB">
<feFlood flood-opacity="0" result="BackgroundImageFix"/>
<feBlend mode="normal" in="SourceGraphic" in2="BackgroundImageFix" result="shape"/>
<feGaussianBlur stdDeviation="5" result="effect1_foregroundBlur"/>
</filter>
</defs>
</svg>
