<svg width="212" height="195" viewBox="0 0 212 195" fill="none" xmlns="http://www.w3.org/2000/svg">
<path d="M97.1642 195C43.5917 195 0 151.259 0 97.5008C0 43.7427 43.5917 0 97.1642 0C115.793 0 133.918 5.32664 149.579 15.4135C152.653 17.4 153.554 21.5127 151.575 24.6061C149.588 27.6995 145.498 28.5937 142.415 26.6088C128.901 17.895 113.249 13.2955 97.1642 13.2955C50.8958 13.2955 13.2496 51.0721 13.2496 97.5008C13.2496 143.928 50.8958 181.704 97.1642 181.704C143.431 181.704 181.077 143.928 181.077 97.5008C181.077 94.7255 180.945 91.9778 180.689 89.2755C180.337 85.6141 183.004 82.3697 186.643 82.0159C190.3 81.6783 193.523 84.3384 193.877 87.9901C194.176 91.1192 194.327 94.2922 194.327 97.5008C194.327 151.259 150.737 195 97.1642 195Z" fill="#34C759"/>
<path d="M108.204 119.659C106.509 119.659 104.813 119.012 103.524 117.71L63.775 77.8237C61.1872 75.2253 61.1872 71.0153 63.775 68.4185C66.3628 65.8218 70.5583 65.8218 73.1461 68.4185L108.214 103.608L200.686 10.8139C203.276 8.21717 207.471 8.21717 210.059 10.8139C212.647 13.4107 212.647 17.6207 210.059 20.2175L112.895 117.718C111.596 119.012 109.901 119.659 108.204 119.659Z" fill="#34C759"/>
</svg>
