<svg width="57" height="50" viewBox="0 0 57 50" fill="none" xmlns="http://www.w3.org/2000/svg">
<g opacity="0.5" filter="url(#filter0_f)">
<path d="M30.773 30.7071C31.9051 29.6731 32.3726 28.4291 32.1017 26.9823C31.8828 25.8127 31.2281 24.8941 30.1542 24.3009C28.8939 23.6054 27.6118 23.5977 26.3475 24.2623C25.0831 24.927 24.3909 25.9918 24.2412 27.4069L24.1901 27.402C24.031 27.1453 23.8772 26.8848 23.7107 26.633C23.4827 26.288 23.2617 25.9423 22.8952 25.7075C22.1049 25.2053 21.2932 25.2171 20.4955 25.6396C19.657 26.0841 19.2125 26.8056 19.2097 27.7522C19.2097 28.3495 19.4805 28.8768 19.7613 29.3899C20.2811 30.339 20.9716 31.1629 21.7508 31.9088C22.1771 32.3151 22.6685 32.658 23.1228 33.0379C23.7284 33.5421 24.017 34.186 23.9757 34.9693C23.9683 35.1131 23.8607 35.0965 23.7655 35.0965C22.9344 35.0965 22.1033 35.0965 21.2722 35.0965C20.3652 35.0965 19.4583 35.0884 18.5513 35.0965C18.3575 35.0985 18.3097 35.0372 18.3118 34.8548C18.3217 34.1235 18.318 33.3922 18.3155 32.6633C18.3114 31.6826 18.299 30.7018 18.299 29.7211C18.299 28.733 18.3167 27.7453 18.3118 26.7552C18.3089 26.1978 18.1881 25.6546 18.0174 25.1253C17.5895 23.8053 16.7897 22.7632 15.6317 21.9701C14.7052 21.3394 13.864 20.595 13.1285 19.7547C12.5357 19.0734 11.9523 18.3811 11.4164 17.6567C10.8805 16.9323 10.4587 16.1262 10.1194 15.2901C9.86878 14.673 10.037 14.0928 10.3981 13.5618C10.8425 12.9118 11.7206 12.5551 12.4878 12.7282C13.0704 12.8594 13.4282 13.2758 13.7225 13.7581C14.1678 14.4865 14.5837 15.2353 15.0768 15.9308C15.4066 16.3972 15.8382 16.7982 16.2464 17.2065C16.7126 17.6733 17.1908 18.1308 17.6893 18.5635C17.9646 18.8028 18.287 18.9913 18.5962 19.1888C19.3428 19.6633 20.1323 20.0505 20.9923 20.2857C21.6457 20.4637 22.3028 20.6286 22.9554 20.8094C23.8191 21.0487 24.6869 21.2758 25.5398 21.5492C26.4245 21.8336 27.3043 22.1391 28.1663 22.4837C29.3837 22.9712 30.5121 23.6257 31.5781 24.3838C32.802 25.248 33.8644 26.315 34.7179 27.5373C35.6154 28.8188 36.2787 30.245 36.6777 31.7516C36.7746 32.1173 36.8732 32.4829 36.9461 32.8526C37.0731 33.4937 36.6481 34.4184 36.0874 34.7621C36.059 34.7792 36.0264 34.7902 35.9773 34.8129C35.3932 33.8631 34.6389 33.0258 33.7511 32.3415C32.8652 31.648 31.8717 31.1304 30.773 30.7071Z" fill="#F2AC24"/>
<path d="M31.2038 34.8682V39.4294H25.2195C25.2162 39.3604 25.2096 39.2893 25.2096 39.2182C25.2067 37.6272 25.2401 36.035 25.187 34.4452C25.1773 34.0473 25.0842 33.6557 24.9135 33.295C24.7428 32.9343 24.4982 32.6123 24.1951 32.3493C23.7193 31.9316 23.2032 31.5582 22.7328 31.1357C22.0792 30.5453 21.514 29.8664 21.0541 29.1194C20.8217 28.7459 20.635 28.3466 20.498 27.9298C20.3302 27.4154 20.6418 26.8995 21.1905 26.6573C21.6646 26.4485 22.1754 26.5793 22.4859 27.0075C22.6393 27.2154 22.775 27.4354 22.8915 27.6653C23.2213 28.3271 23.6966 28.8715 24.2449 29.3595C24.6712 29.7389 25.0789 30.1342 25.5934 30.4158C26.1079 30.6973 26.6554 30.8399 27.2165 30.9679C28.7954 31.3267 30.3496 31.7585 31.7818 32.5296C32.9909 33.1797 34.008 34.0442 34.755 35.2111C35.3209 36.0991 35.7163 37.0821 35.9217 38.1111C36.0738 38.8509 35.3655 39.5574 34.6066 39.4351C34.1671 39.3644 33.9235 39.1137 33.7821 38.714C33.5858 38.1537 33.411 37.5797 33.1517 37.0482C32.7271 36.1817 32.0432 35.5121 31.2925 34.91C31.2644 34.8933 31.2347 34.8793 31.2038 34.8682Z" fill="#F2AC24"/>
<path d="M37.5418 35.0928C37.609 34.9827 37.6449 34.9202 37.6841 34.8604C38.0163 34.3554 38.22 33.7968 38.2142 33.2016C38.2097 32.7616 38.1112 32.3168 38.0081 31.8849C37.625 30.2907 36.9847 28.7674 36.1117 27.3732C35.4933 26.379 34.7595 25.4694 33.8818 24.6792C33.813 24.617 33.7549 24.5435 33.665 24.4464C33.8352 24.3793 33.9688 24.3107 34.1106 24.2729C35.4909 23.9032 36.8666 23.5132 38.2559 23.1796C39.4164 22.9009 40.4025 22.3476 41.2488 21.535C41.7736 21.0308 42.3186 20.5413 42.794 19.9944C43.1382 19.5987 43.3839 19.1193 43.6729 18.6769C43.8955 18.3364 44.1033 17.9862 44.3445 17.6583C44.5374 17.3967 44.8239 17.2711 45.1545 17.235C45.8512 17.1594 46.3963 17.4109 46.7652 17.9874C47.1074 18.5225 47.0427 19.0799 46.7817 19.6332C46.2412 20.7773 45.5091 21.7865 44.6479 22.7209C43.9936 23.4282 43.2998 24.088 42.5083 24.6422C41.3997 25.4186 40.6906 26.4501 40.4618 27.7734C40.3876 28.2032 40.3967 28.6497 40.3959 29.0885C40.3909 31.0115 40.3931 32.9336 40.4025 34.8548C40.4025 35.0481 40.3551 35.1062 40.1518 35.1026C39.376 35.0888 38.5997 35.0957 37.8234 35.0945L37.5418 35.0928Z" fill="#F2AC24"/>
<path d="M23.5713 10C26.1001 9.99392 28.2199 12.1126 28.2298 14.6397C28.2381 17.1927 26.0729 19.2879 23.5421 19.2956C20.9411 19.3033 18.7834 17.2459 18.7904 14.6689C18.7953 12.0355 20.8372 10.0041 23.5713 10Z" fill="#F2AC24"/>
<path d="M36.2032 15.0777C38.288 15.0232 39.9877 16.6329 40.0046 18.7341C40.022 20.8468 38.3944 22.4479 36.3191 22.4824C34.0616 22.5206 32.5144 20.8346 32.4637 18.8008C32.4134 16.7889 34.1997 14.9972 36.2032 15.0777Z" fill="#F2AC24"/>
<path d="M28.2632 25.0363C29.5985 24.9774 30.9313 26.1507 30.9321 27.6308C30.9321 29.2091 29.7572 30.3427 28.2261 30.3764C26.6851 30.4105 25.464 29.0726 25.4883 27.7071C25.5143 26.1848 26.7168 24.9766 28.2632 25.0363Z" fill="#F2AC24"/>
</g>
<path d="M30.773 30.7071C31.9051 29.6731 32.3726 28.4291 32.1017 26.9823C31.8828 25.8127 31.2281 24.8941 30.1542 24.3009C28.8939 23.6054 27.6118 23.5977 26.3475 24.2623C25.0831 24.927 24.3909 25.9918 24.2412 27.4069L24.1901 27.402C24.031 27.1453 23.8772 26.8848 23.7107 26.633C23.4827 26.288 23.2617 25.9423 22.8952 25.7075C22.1049 25.2053 21.2932 25.2171 20.4955 25.6396C19.657 26.0841 19.2125 26.8056 19.2097 27.7522C19.2097 28.3495 19.4805 28.8768 19.7613 29.3899C20.2811 30.339 20.9716 31.1629 21.7508 31.9088C22.1771 32.3151 22.6685 32.658 23.1228 33.0379C23.7284 33.5421 24.017 34.186 23.9757 34.9693C23.9683 35.1131 23.8607 35.0965 23.7655 35.0965C22.9344 35.0965 22.1033 35.0965 21.2722 35.0965C20.3652 35.0965 19.4583 35.0884 18.5513 35.0965C18.3575 35.0985 18.3097 35.0372 18.3118 34.8548C18.3217 34.1235 18.318 33.3922 18.3155 32.6633C18.3114 31.6826 18.299 30.7018 18.299 29.7211C18.299 28.733 18.3167 27.7453 18.3118 26.7552C18.3089 26.1978 18.1881 25.6546 18.0174 25.1253C17.5895 23.8053 16.7897 22.7632 15.6317 21.9701C14.7052 21.3394 13.864 20.595 13.1285 19.7547C12.5357 19.0734 11.9523 18.3811 11.4164 17.6567C10.8805 16.9323 10.4587 16.1262 10.1194 15.2901C9.86878 14.673 10.037 14.0928 10.3981 13.5618C10.8425 12.9118 11.7206 12.5551 12.4878 12.7282C13.0704 12.8594 13.4282 13.2758 13.7225 13.7581C14.1678 14.4865 14.5837 15.2353 15.0768 15.9308C15.4066 16.3972 15.8382 16.7982 16.2464 17.2065C16.7126 17.6733 17.1908 18.1308 17.6893 18.5635C17.9646 18.8028 18.287 18.9913 18.5962 19.1888C19.3428 19.6633 20.1323 20.0505 20.9923 20.2857C21.6457 20.4637 22.3028 20.6286 22.9554 20.8094C23.8191 21.0487 24.6869 21.2758 25.5398 21.5492C26.4245 21.8336 27.3043 22.1391 28.1663 22.4837C29.3837 22.9712 30.5121 23.6257 31.5781 24.3838C32.802 25.248 33.8644 26.315 34.7179 27.5373C35.6154 28.8188 36.2787 30.245 36.6777 31.7516C36.7746 32.1173 36.8732 32.4829 36.9461 32.8526C37.0731 33.4937 36.6481 34.4184 36.0874 34.7621C36.059 34.7792 36.0264 34.7902 35.9773 34.8129C35.3932 33.8631 34.6389 33.0258 33.7511 32.3415C32.8652 31.648 31.8717 31.1304 30.773 30.7071Z" fill="#F2AC24"/>
<path d="M31.2038 34.8682V39.4294H25.2195C25.2162 39.3604 25.2096 39.2893 25.2096 39.2182C25.2067 37.6272 25.2401 36.035 25.187 34.4452C25.1773 34.0473 25.0842 33.6557 24.9135 33.295C24.7428 32.9343 24.4982 32.6123 24.1951 32.3493C23.7193 31.9316 23.2032 31.5582 22.7328 31.1357C22.0792 30.5453 21.514 29.8664 21.0541 29.1194C20.8217 28.7459 20.635 28.3466 20.498 27.9298C20.3302 27.4154 20.6418 26.8995 21.1905 26.6573C21.6646 26.4485 22.1754 26.5793 22.4859 27.0075C22.6393 27.2154 22.775 27.4354 22.8915 27.6653C23.2213 28.3271 23.6966 28.8715 24.2449 29.3595C24.6712 29.7389 25.0789 30.1342 25.5934 30.4158C26.1079 30.6973 26.6554 30.8399 27.2165 30.9679C28.7954 31.3267 30.3496 31.7585 31.7818 32.5296C32.9909 33.1797 34.008 34.0442 34.755 35.2111C35.3209 36.0991 35.7163 37.0821 35.9217 38.1111C36.0738 38.8509 35.3655 39.5574 34.6066 39.4351C34.1671 39.3644 33.9235 39.1137 33.7821 38.714C33.5858 38.1537 33.411 37.5797 33.1517 37.0482C32.7271 36.1817 32.0432 35.5121 31.2925 34.91C31.2644 34.8933 31.2347 34.8793 31.2038 34.8682Z" fill="#F2AC24"/>
<path d="M37.5418 35.0928C37.609 34.9827 37.6449 34.9202 37.6841 34.8604C38.0163 34.3554 38.22 33.7968 38.2142 33.2016C38.2097 32.7616 38.1112 32.3168 38.0081 31.8849C37.625 30.2907 36.9847 28.7674 36.1117 27.3732C35.4933 26.379 34.7595 25.4694 33.8818 24.6792C33.813 24.617 33.7549 24.5435 33.665 24.4464C33.8352 24.3793 33.9688 24.3107 34.1106 24.2729C35.4909 23.9032 36.8666 23.5132 38.2559 23.1796C39.4164 22.9009 40.4025 22.3476 41.2488 21.535C41.7736 21.0308 42.3186 20.5413 42.794 19.9944C43.1382 19.5987 43.3839 19.1193 43.6729 18.6769C43.8955 18.3364 44.1033 17.9862 44.3445 17.6583C44.5374 17.3967 44.8239 17.2711 45.1545 17.235C45.8512 17.1594 46.3963 17.4109 46.7652 17.9874C47.1074 18.5225 47.0427 19.0799 46.7817 19.6332C46.2412 20.7773 45.5091 21.7865 44.6479 22.7209C43.9936 23.4282 43.2998 24.088 42.5083 24.6422C41.3997 25.4186 40.6906 26.4501 40.4618 27.7734C40.3876 28.2032 40.3967 28.6497 40.3959 29.0885C40.3909 31.0115 40.3931 32.9336 40.4025 34.8548C40.4025 35.0481 40.3551 35.1062 40.1518 35.1026C39.376 35.0888 38.5997 35.0957 37.8234 35.0945L37.5418 35.0928Z" fill="#F2AC24"/>
<path d="M23.5713 10C26.1001 9.99392 28.2199 12.1126 28.2298 14.6397C28.2381 17.1927 26.0729 19.2879 23.5421 19.2956C20.9411 19.3033 18.7834 17.2459 18.7904 14.6689C18.7953 12.0355 20.8372 10.0041 23.5713 10Z" fill="#F2AC24"/>
<path d="M36.2032 15.0777C38.288 15.0232 39.9877 16.6329 40.0046 18.7341C40.022 20.8468 38.3944 22.4479 36.3191 22.4824C34.0616 22.5206 32.5144 20.8346 32.4637 18.8008C32.4134 16.7889 34.1997 14.9972 36.2032 15.0777Z" fill="#F2AC24"/>
<path d="M28.2632 25.0363C29.5985 24.9774 30.9313 26.1507 30.9321 27.6308C30.9321 29.2091 29.7572 30.3427 28.2261 30.3764C26.6851 30.4105 25.464 29.0726 25.4883 27.7071C25.5143 26.1848 26.7168 24.9766 28.2632 25.0363Z" fill="#F2AC24"/>
<defs>
<filter id="filter0_f" x="0" y="0" width="57" height="49.449" filterUnits="userSpaceOnUse" color-interpolation-filters="sRGB">
<feFlood flood-opacity="0" result="BackgroundImageFix"/>
<feBlend mode="normal" in="SourceGraphic" in2="BackgroundImageFix" result="shape"/>
<feGaussianBlur stdDeviation="5" result="effect1_foregroundBlur"/>
</filter>
</defs>
</svg>
