<svg width="56" height="56" viewBox="0 0 56 56" fill="none" xmlns="http://www.w3.org/2000/svg">
<rect width="55.4" height="55.4" rx="7.38667" fill="#C4302B"/>
<path d="M45.0567 19.5277C44.8592 18.778 44.4719 18.0942 43.9336 17.5449C43.3953 16.9957 42.7249 16.6001 41.9894 16.3978C39.2823 15.6558 28.4305 15.6558 28.4305 15.6558C28.4305 15.6558 17.5787 15.6558 14.8715 16.3939C14.1358 16.5955 13.465 16.9908 12.9266 17.5402C12.3882 18.0896 12.0011 18.7737 11.8042 19.5238C11.08 22.2866 11.08 28.049 11.08 28.049C11.08 28.049 11.08 33.8115 11.8042 36.5704C12.2031 38.0938 13.3805 39.2937 14.8715 39.7002C17.5787 40.4422 28.4305 40.4422 28.4305 40.4422C28.4305 40.4422 39.2823 40.4422 41.9894 39.7002C43.4844 39.2937 44.6578 38.0938 45.0567 36.5704C45.781 33.8115 45.781 28.049 45.781 28.049C45.781 28.049 45.781 22.2866 45.0567 19.5277ZM24.9836 33.3379V22.7602L33.9687 28.0096L24.9836 33.3379Z" fill="white"/>
</svg>
